<?xml version="1.0" standalone="no"?>
<!DOCTYPE svg PUBLIC "-//W3C//DTD SVG 20010904//EN"
 "http://www.w3.org/TR/2001/REC-SVG-20010904/DTD/svg10.dtd">
<svg version="1.0" xmlns="http://www.w3.org/2000/svg"
 width="409.000000pt" height="307.000000pt" viewBox="0 0 409.000000 307.000000"
 preserveAspectRatio="xMidYMid meet">
<metadata>
Created by potrace 1.16, written by Peter Selinger 2001-2019
</metadata>
<g transform="translate(0.000000,307.000000) scale(0.087768,-0.051167)"
fill="#000000" stroke="none">
<path d="M1860 5984 c-204 -30 -407 -103 -565 -206 -284 -183 -626 -536 -851
-878 -254 -385 -333 -686 -378 -1450 -71 -1173 -77 -1439 -46 -1795 14 -157
74 -508 149 -870 32 -159 78 -391 100 -515 23 -124 44 -235 47 -247 4 -22 9
-23 89 -23 l85 0 -6 43 c-9 62 -65 335 -129 627 -82 372 -143 684 -168 860
-21 148 -22 182 -20 760 3 652 7 721 79 1385 75 690 127 874 329 1154 139 193
586 663 735 773 224 164 414 234 670 245 231 9 563 -38 788 -113 273 -91 691
-333 849 -492 122 -123 273 -343 273 -399 0 -22 -6 -20 -91 38 -155 104 -268
146 -355 132 -93 -14 -190 -93 -254 -207 -21 -37 -48 -67 -79 -88 -68 -45 -71
-52 -71 -142 0 -96 -16 -163 -59 -243 -32 -60 -115 -163 -132 -163 -5 0 9 29
31 65 94 154 130 254 130 364 0 70 -19 116 -52 127 -29 9 -80 6 -91 -5 -5 -5
-13 -59 -17 -120 -10 -126 -27 -174 -106 -292 -47 -70 -77 -99 -101 -99 -20 0
-16 30 22 150 19 61 35 120 35 131 0 10 -13 33 -29 51 l-29 33 -29 -21 c-41
-31 -70 -77 -95 -156 -22 -68 -23 -69 -51 -64 -16 3 -95 35 -176 70 -280 122
-478 170 -701 171 -197 0 -305 -33 -401 -122 -115 -107 -133 -263 -31 -263 35
0 67 29 93 86 50 105 148 149 329 148 218 -1 501 -77 733 -196 58 -30 77 -45
77 -61 0 -11 -19 -61 -42 -111 -41 -87 -43 -95 -42 -181 0 -79 5 -103 38 -190
91 -240 121 -391 136 -678 6 -106 18 -286 27 -402 13 -156 17 -334 18 -695 0
-523 -3 -565 -48 -574 -81 -17 -383 -8 -508 14 -34 6 -99 29 -145 50 -345 159
-705 484 -951 858 -103 158 -127 182 -175 182 -50 0 -82 -30 -73 -68 7 -31 24
-58 154 -249 141 -206 202 -281 288 -354 108 -91 510 -399 558 -428 68 -41 76
-50 62 -73 -19 -32 -96 -65 -207 -88 -166 -35 -195 -61 -140 -123 l29 -32 110
2 c61 1 111 -2 111 -5 0 -16 -95 -191 -131 -242 -72 -102 -91 -147 -96 -230
-9 -130 37 -363 74 -377 15 -6 71 5 115 22 13 5 23 -6 46 -52 47 -91 109 -136
154 -112 31 17 23 95 -22 230 -46 136 -44 129 -27 129 6 -1 61 -63 121 -140
139 -177 143 -182 207 -188 l52 -5 -5 66 c-3 60 -7 69 -44 109 -54 58 -180
237 -198 279 -20 49 -8 115 68 382 44 153 69 217 84 217 4 0 75 -38 157 -85
156 -89 222 -115 288 -115 82 0 137 49 199 176 17 36 39 66 53 72 17 8 73 5
222 -13 257 -31 488 -46 582 -40 333 23 610 34 643 25 44 -13 59 -33 122 -158
108 -216 147 -353 202 -719 l38 -253 84 0 84 0 -7 53 c-37 285 -161 762 -247
955 l-53 117 3 170 c4 204 -9 279 -75 440 -49 122 -88 197 -204 391 -87 147
-109 196 -174 386 -110 320 -275 940 -275 1035 0 29 33 46 145 72 50 12 118
35 152 51 113 56 208 184 250 340 25 91 24 349 -1 475 -42 212 -136 442 -253
619 -84 128 -289 335 -418 422 -522 354 -1153 530 -1645 458z m1707 -1184 c85
-52 39 -184 -111 -314 l-58 -51 -29 34 c-39 48 -59 92 -59 135 0 77 58 161
135 197 51 24 82 24 122 -1z m452 -322 c31 -100 40 -295 17 -391 -23 -99 -63
-175 -120 -232 -96 -96 -162 -110 -316 -70 -76 19 -145 29 -255 35 -140 7
-192 17 -221 41 -25 21 4 73 84 149 79 76 122 144 122 193 0 15 2 27 4 27 2 0
38 -16 80 -36 139 -66 271 -53 410 40 50 34 67 52 94 106 18 36 40 98 49 138
10 39 20 72 24 72 3 0 16 -33 28 -72z m-426 -49 c30 -16 67 -50 67 -63 0 -13
-81 -66 -101 -66 -8 0 -27 10 -43 23 -32 26 -31 46 5 91 22 28 39 32 72 15z
m-309 -171 c-3 -4 -22 -15 -42 -24 -20 -8 -86 -64 -147 -123 -104 -102 -155
-143 -155 -123 0 13 103 174 183 286 l71 100 47 -54 c27 -29 46 -57 43 -62z
m-116 -562 c59 -18 136 -39 172 -46 87 -18 111 -44 144 -151 14 -46 84 -320
156 -609 148 -591 206 -800 320 -1145 87 -264 123 -394 118 -427 -2 -14 -13
-24 -32 -29 -106 -29 -614 -39 -921 -19 -174 12 -345 34 -403 53 -35 11 -37
15 -46 68 -5 35 -3 174 6 380 15 341 11 521 -17 769 -20 180 -33 348 -45 565
-6 99 -13 217 -16 262 -9 114 -1 128 120 221 225 173 230 174 444 108z m-695
-2531 c23 -9 22 -26 -4 -59 -26 -33 -44 -33 -156 5 -86 28 -105 43 -85 63 9
10 220 2 245 -9z"/>
<path d="M2183 5556 c-76 -18 -150 -50 -181 -79 -32 -30 -88 -118 -126 -197
-51 -109 -46 -143 55 -346 l84 -169 135 -54 c120 -49 143 -55 207 -54 61 0 82
5 137 32 82 40 157 121 205 221 35 72 36 79 36 185 0 107 -1 112 -39 189 -27
56 -57 98 -105 145 -122 122 -252 162 -408 127z m64 -197 l45 -12 -5 -41 c-9
-66 -90 -217 -142 -265 -37 -34 -52 -42 -78 -39 -64 6 -97 129 -62 229 41 117
120 158 242 128z m47 -440 c17 -20 26 -43 26 -65 0 -27 -6 -36 -31 -50 -40
-20 -95 -12 -104 17 -10 31 3 87 26 110 27 27 53 24 83 -12z"/>
</g>
</svg>
